<?xml version="1.0" encoding="UTF-8"?>
<svg id="_图层_1" xmlns="http://www.w3.org/2000/svg" xmlns:xlink="http://www.w3.org/1999/xlink" version="1.1" viewBox="0 0 800 800">
  <!-- Generator: Adobe Illustrator 29.0.0, SVG Export Plug-In . SVG Version: 2.1.0 Build 186)  -->
  <defs>
    <style>
      .st0 {
        fill: url(#_未命名的渐变_171);
      }

      .st1 {
        fill: #fc0e1a;
      }

      .st2 {
        fill: #fc0e1b;
      }

      .st3 {
        fill: url(#_未命名的渐变_17);
      }
    </style>
    <linearGradient id="_未命名的渐变_17" data-name="未命名的渐变 17" x1="6629.7" y1="13245.7" x2="6664.1" y2="13306" gradientTransform="translate(7166.2 13507.1) rotate(-180)" gradientUnits="userSpaceOnUse">
      <stop offset="0" stop-color="#b40000"/>
      <stop offset=".2" stop-color="#b40000"/>
      <stop offset="1" stop-color="#fc0e1a"/>
    </linearGradient>
    <linearGradient id="_未命名的渐变_171" data-name="未命名的渐变 17" x1="263.4" y1="311" x2="297.8" y2="371.3" gradientTransform="matrix(1,0,0,1,0,0)" xlink:href="#_未命名的渐变_17"/>
  </defs>
  <g>
    <g>
      <path d="M193.8,608.8c-4-4.3-10.1-6.5-18.4-6.5h-22.6v55.8h22.6c8.3,0,14.5-2.2,18.4-6.6,3.9-4.4,5.9-11.4,5.9-21s-2-17.4-6-21.7ZM188.9,643.4c-1.2,3-3.1,5.1-5.6,6.2-2.5,1.1-5.6,1.6-9.3,1.6h-12v-42h12c4,0,7.2.6,9.7,1.9,2.5,1.2,4.3,3.4,5.4,6.5,1.1,3,1.7,7.4,1.7,12.9s-.6,9.9-1.9,12.9Z"/>
      <path d="M246.4,633.7c0-5.1-1.6-9.3-4.7-12.6-3.1-3.2-7.8-4.9-14-4.9s-11.9,1.9-15.2,5.7c-3.3,3.8-5,9-5,15.6s2,12.7,5.9,16.2c3.9,3.5,9.5,5.3,16.6,5.3s5.3-.2,7.7-.6c2.3-.4,4.4-1,6.2-1.8v-6.5c-1.6.6-3.4,1.1-5.5,1.5-2.2.4-4.4.6-6.5.6-5,0-8.8-.8-11.3-2.3-2.5-1.6-4-4.4-4.5-8.5v-.3s30.3,0,30.3,0v-7.4ZM238.5,635.4h-22.4v-.2c0-4.2.9-7.3,2.6-9.3,1.7-2,4.8-3,9.3-3s6.5.8,8.1,2.5c1.6,1.6,2.4,4,2.4,6.9v3.1Z"/>
      <path d="M282.2,617.2l-11.8,32.7-11.8-32.7h-9.3l16.2,41h10l16.1-41h-9.3Z"/>
      <path d="M335.2,650.8c-2.7.4-5.4.7-8.1.7-6.6,0-11.6-1.8-14.8-5.2-3.2-3.4-4.8-8.5-4.8-15.2s1.5-12.6,4.4-16.3c2.9-3.8,8-5.7,15-5.7s5.7.3,8.4.7c2.5.5,4.9,1.2,7.2,2v-7.8c-2.3-.8-4.7-1.4-7.4-1.9-2.7-.5-5.7-.7-8.9-.7-6.3,0-11.6,1.2-15.7,3.6-4.1,2.4-7.1,5.8-9.1,10.2-2,4.4-3,9.7-3,15.9s2.4,15.4,7.1,20.4c4.7,5,11.7,7.5,20.9,7.5s6.2-.2,8.9-.6c2.6-.4,5.1-1,7.4-1.7v-7.9c-2.3.9-4.8,1.5-7.4,1.9Z"/>
      <path d="M387.5,621.8c-3.4-3.7-8.9-5.5-16.3-5.5s-12.7,1.9-16.2,5.5c-3.4,3.7-5.2,9-5.2,15.8s1.7,12.2,5.1,15.8c3.4,3.7,8.9,5.5,16.2,5.5s12.9-1.9,16.3-5.5c3.4-3.7,5.1-9,5.1-15.8s-1.7-12.2-5.2-15.8ZM380.7,648.2c-1.9,2.2-5.1,3.3-9.5,3.3s-7.5-1.1-9.4-3.3c-1.9-2.2-2.8-5.7-2.8-10.5s.9-8.3,2.8-10.5c1.9-2.1,5-3.2,9.4-3.2s7.6,1.1,9.5,3.2c1.9,2.1,2.8,5.7,2.8,10.5s-.9,8.4-2.8,10.5Z"/>
      <path d="M437.8,620c-2.4-2.4-6.3-3.7-11.5-3.7s-6,.5-8.5,1.5c-2.6,1-4.8,2.2-6.6,3.7l-.3.3-.5-4.6h-8.3v41h9v-30.2h0c1.4-1.5,3.2-2.6,5.3-3.5,2.1-.9,4.3-1.3,6.4-1.3,3.7,0,6.2.7,7.6,2,1.4,1.3,2,3.7,2,6.9v26.2h9v-26.6c0-5.2-1.2-9.1-3.6-11.5Z"/>
    </g>
    <g>
      <path class="st2" d="M481.7,648.6l.2-.4c1.5-2.6,3.4-5,5.8-7.2,2.4-2.2,4.9-4.5,7.6-6.8,2.1-1.9,4-3.8,5.7-5.6,1.6-1.8,2.9-3.8,3.8-5.8.9-2,1.4-4.4,1.4-7,0-5.3-1.6-9.5-4.7-12.5-3.1-3-7.9-4.6-14.1-4.6s-5.1.2-7.9.7c-2.7.4-5.1,1-7.1,1.6v7.9c2-.8,4.1-1.4,6.3-1.8,2.3-.5,4.6-.7,6.8-.7,4.1,0,7.1.8,8.9,2.4,1.8,1.6,2.7,4,2.7,7.1s-.2,3.2-.5,4.5c-.4,1.3-1,2.5-1.9,3.7-.9,1.2-2.1,2.5-3.7,3.9-1.5,1.4-3.5,3.2-5.8,5.2-3.1,2.7-6,5.4-8.7,8.3-2.7,2.8-4.8,6-6.3,9.5v4.4h36.5v-6.9h-25Z"/>
      <path class="st2" d="M559.1,612.2c-1.6-4.4-4.2-7.7-7.7-10-3.5-2.3-8.4-3.5-14.3-3.5s-10.8,1.2-14.4,3.5c-3.6,2.3-6.2,5.7-7.7,10-1.6,4.4-2.4,9.8-2.4,16s.8,11.2,2.5,15.5c1.6,4.3,4.3,7.6,7.8,9.8,3.6,2.3,8.3,3.4,14.2,3.4s10.6-1.2,14.2-3.4c3.6-2.3,6.2-5.6,7.8-9.8,1.6-4.3,2.4-9.5,2.4-15.5s-.8-11.6-2.4-16ZM549,643.7c-2.2,3.8-6.3,5.7-11.9,5.7s-9.8-1.9-12-5.7c-2.2-3.7-3.4-8.9-3.4-15.5s1.1-12.4,3.3-16.1c2.2-3.8,6.3-5.7,12.1-5.7s9.8,1.9,12,5.7c2.2,3.8,3.3,9.2,3.3,16.1s-1.1,11.8-3.4,15.5Z"/>
      <path class="st2" d="M578.8,648.6l.2-.4c1.5-2.6,3.4-5,5.8-7.2,2.4-2.2,4.9-4.5,7.6-6.8,2.1-1.9,4-3.8,5.7-5.6,1.6-1.8,2.9-3.8,3.8-5.8.9-2,1.4-4.4,1.4-7,0-5.3-1.6-9.5-4.7-12.5-3.1-3-7.9-4.6-14.1-4.6s-5.1.2-7.9.7c-2.7.4-5.1,1-7.1,1.6v7.9c2-.8,4.1-1.4,6.3-1.8,2.3-.5,4.6-.7,6.8-.7,4.1,0,7.1.8,8.9,2.4,1.8,1.6,2.7,4,2.7,7.1s-.2,3.2-.5,4.5c-.4,1.3-1,2.5-1.9,3.7-.9,1.2-2.1,2.5-3.7,3.9-1.5,1.4-3.5,3.2-5.8,5.2-3.1,2.7-6,5.4-8.7,8.3-2.7,2.8-4.8,6-6.3,9.5v4.4h36.5v-6.9h-25Z"/>
      <path class="st2" d="M642,626c-3-2.8-7.9-4.2-14.5-4.2h-9.8l1-15.3h23.2l.7-6.9h-31.5l-1.5,23.5v5.5h16.4c4.5,0,7.5.8,9.1,2.4,1.6,1.6,2.3,4.1,2.3,7.4s-1.1,6.3-3.3,7.8c-2.2,1.6-5.5,2.4-10.1,2.4s-4.9-.2-7.5-.7c-2.5-.4-4.7-1.1-6.7-1.9v7.8c1.9.8,4.4,1.4,7.2,1.8,3,.4,5.7.6,8.2.6,7,0,12.4-1.6,15.9-4.7,3.5-3.1,5.3-7.5,5.3-12.9s-1.5-9.9-4.6-12.7Z"/>
    </g>
    <g>
      <rect x="576.5" y="490.6" width="12.3" height="82"/>
      <path d="M376.9,538.3c1.4-.7,2.7-1.5,3.8-2.5,2.6-2.5,4.4-6.2,4.4-10.9v-19.5c0-4.7-1.7-8.4-4.4-10.9-2.6-2.5-6.4-3.9-9.9-3.9l-35.5.2v82.1h12.3v-33h12.7c3.2.2,9.2,1.5,11,9.7l4.8,23.3h13.5c0,0-5.1-22-5.1-22-1.6-7-4-10.6-7.6-12.4M347.5,502.1h0c0,0,21.2,0,21.2,0,2.5,0,3.9,2.2,3.9,4.7v16.8c0,2.5-1.4,4.7-3.9,4.7h-21.2v-26.1Z"/>
      <path d="M157.6,494.5c-2.6,2.5-4.4,6.2-4.4,10.9v52.5c0,4.7,1.7,8.4,4.4,10.9,2.6,2.5,6.4,3.9,9.9,3.9h33.2v-11.5h-31.3c-2.5,0-3.9-2.2-3.9-4.7v-21.2h30.8v-11.5h-30.8v-17.1c0-2.5,1.4-4.7,3.9-4.7h31.3v-11.5h-33.2c-3.4,0-7.3,1.3-9.9,3.9"/>
      <path d="M615.8,502.1h31.3v-11.5h-33.2c-3.4,0-7.3,1.4-9.9,3.9-2.6,2.5-4.4,6.2-4.4,10.9v67h12.3v-37.1h30.8v-11.5h-30.8v-17.1c0-2.5,1.4-4.7,3.9-4.7"/>
      <path d="M247.5,523.9h-19.1c-2.5,0-4.4-2-4.4-4.4v-12.6c0-2.5,1.4-4.7,3.9-4.7h30.7v-11.5h-32.8c-3.4,0-7.3,1.4-9.9,3.9-2.6,2.5-4.4,6.2-4.4,10.9v17c0,8,6.5,14.4,14.4,14.4h19.1c2.5,0,4.4,2,4.4,4.4v15.2c0,2.5-1.4,4.7-3.9,4.7h-34v11.5h36c3.4,0,7.3-1.4,9.9-3.9,2.6-2.5,4.4-6.2,4.4-10.9v-19.5c0-8-6.5-14.4-14.4-14.4"/>
      <path d="M400.6,494.5c-2.6,2.5-4.4,6.2-4.4,10.9v52.5c0,4.7,1.7,8.4,4.4,10.9,2.6,2.5,6.4,3.9,9.9,3.9h33.2v-11.5h-31.3c-2.5,0-3.9-2.2-3.9-4.7v-21.2h30.8v-11.5h-30.8v-17.1c0-2.5,1.4-4.7,3.9-4.7h31.3v-11.5h-33.2c-3.4,0-7.3,1.3-9.9,3.9"/>
      <path d="M490.5,523.9h-19.1c-2.5,0-4.4-2-4.4-4.4v-12.6c0-2.5,1.4-4.7,3.9-4.7h30.7v-11.5h-32.8c-3.4,0-7.3,1.4-9.9,3.9-2.6,2.5-4.4,6.2-4.4,10.9v17c0,8,6.5,14.4,14.4,14.4h19.1c2.5,0,4.4,2,4.4,4.4v15.2c0,2.5-1.4,4.7-3.9,4.7h-34v11.5h36c3.4,0,7.3-1.4,9.9-3.9,2.6-2.5,4.4-6.2,4.4-10.9v-19.5c0-8-6.5-14.4-14.4-14.4"/>
      <path d="M551,523.9h-19.1c-2.5,0-4.4-2-4.4-4.4v-12.6c0-2.5,1.4-4.7,3.9-4.7h30.7v-11.5h-32.8c-3.4,0-7.3,1.4-9.9,3.9-2.6,2.5-4.4,6.2-4.4,10.9v17c0,8,6.5,14.4,14.4,14.4h19.1c2.5,0,4.4,2,4.4,4.4v15.2c0,2.5-1.4,4.7-3.9,4.7h-34v11.5h36c3.4,0,7.3-1.4,9.9-3.9,2.6-2.5,4.4-6.2,4.4-10.9v-19.5c0-8-6.5-14.4-14.4-14.4"/>
      <path d="M310.4,490.6h-37.4v82.2h12.3v-31.9h25c3.4,0,7.3-1.4,9.9-3.9,2.6-2.5,4.4-6.2,4.4-10.9v-20.6c0-4.7-1.7-8.4-4.4-10.9-2.5-2.5-6.4-3.9-9.9-3.9M312.3,524.6c0,2.5-1.4,4.7-3.9,4.7h-23v-27.2h0c0,0,23,0,23,0,2.5,0,3.9,2.2,3.9,4.7v17.9Z"/>
    </g>
  </g>
  <g>
    <path class="st1" d="M372.9,403h-35.4c-3,0-5.9-1.6-7.4-4.3l-32-55.4-30.5-52.8c-.6-1-.9-2.1-1.1-3.2-.2-1.8.1-3.7,1.1-5.3l62.5-108.2c1.5-2.6,4.3-4.3,7.4-4.3h22.1c1.2,0,2.3-.6,2.9-1.7l12.5-21.6c1.3-2.3-.3-5.1-3-5.1h-34.6c-13.2,0-25.4,7.1-32,18.5l-62.5,108.2c-6.6,11.4-6.6,25.5,0,36.9l5.3,9.2,39,67.5,18.2,31.5c6.6,11.4,18.8,18.5,32,18.5h22.9c1.2,0,2.3-.7,2.9-1.7l12.5-21.6c1.3-2.3-.3-5.1-3-5.1Z"/>
    <g>
      <path class="st1" d="M427.1,169.4h35.4c3,0,5.9,1.6,7.4,4.3l32,55.4,30.5,52.8c.6,1,.9,2.1,1.1,3.2.2,1.8-.1,3.7-1.1,5.3l-62.5,108.2c-1.5,2.6-4.3,4.3-7.4,4.3h-22.1c-1.2,0-2.3.6-2.9,1.7l-12.5,21.6c-1.3,2.3.3,5.1,3,5.1h34.6c13.2,0,25.4-7.1,32-18.5l62.5-108.2c6.6-11.4,6.6-25.5,0-36.9l-5.3-9.2-39-67.5-18.2-31.5c-6.6-11.4-18.8-18.5-32-18.5h-22.9c-1.2,0-2.3.7-2.9,1.7l-12.5,21.6c-1.3,2.3.3,5.1,3,5.1Z"/>
      <path class="st3" d="M487.8,204.7l24.9-13.8,39,67.5-18.2,26.7h0c-.1-1.2-.5-2.3-1.1-3.3l-30.5-52.8-14.1-24.4Z"/>
    </g>
    <path class="st0" d="M312.2,367.6l-24.9,13.8-39-67.5,18.2-26.7h0c.1,1.2.5,2.3,1.1,3.3l30.5,52.8,14.1,24.4Z"/>
    <path class="st2" d="M492.5,286c0-1.8-.3-3.6-.9-5.3-.4-1.1-.8-2.2-1.4-3.2l-.7-1.2-35.9-62.1-1.1-2c-3.1-5.3-8.6-8.6-14.8-8.6h-18.6c-2.3,0-3.3,3-1.4,4.4,6.5,4.7,16.4,13.6,30,34.2,4,6.1,7.7,13.1,11.8,20.5,11.8,21.4,16,40.2,16.7,48.4.2,2.1,2.9,2.7,3.9.9l9.8-17c1.6-2.8,2.6-5.8,2.5-9Z"/>
    <path class="st2" d="M467.7,330c-1.7-24.5-10.2-50.3-23.1-70.6-11.5-21.1-30-40.3-50.7-53.6-1.8-1.2-3.8-2.1-6.8-2.1h-24.2c-1.7,0-3.5.4-4.9,1.3,0,0,0,0,0,0-1.1.8-2.1,1.8-2.8,3l-2.3,3.9c-.2.9-.2,1.8,0,2.6,0,0,0,0,0,.1.4,1.5,1.6,2.8,3.2,3.3,27.3,8.9,52.9,32.3,66.8,55.5,0,0,0,0,0,0,.7,1.1,1.4,2.2,2.1,3.4,13.5,23.4,19,51.4,13.6,79.7-.3,1.7.2,3.3,1.3,4.4s2.1,1.3,3.3,1.3h3.6c3.2,0,5.5-1.8,7.1-4.5l12.3-21.2s0,0,0-.2c.7-2.3,1.6-3.7,1.5-6.2Z"/>
    <path class="st2" d="M331.2,313.2h0c-5,0-9.6,2.7-12.1,7h0c-2.5,4.3-2.5,9.6,0,13.9h0c2.5,4.3,7.1,7,12.1,7h0c5,0,9.6-2.7,12.1-7h0c2.5-4.3,2.5-9.6,0-13.9h0c-2.5-4.3-7.1-7-12.1-7Z"/>
    <path class="st2" d="M425.2,359.5c-1,2.8-1.5,9.1-5.9,9.1h-20.5c-4.2-1.7-3.8-5.5-2.6-9,1.1-3.1,2-6.3,2.6-9.5,8.3-39.8-8.3-71.2-42.1-87.5-3.6-1.7-7.7-5.3-11.3,1.2-3.4,6.1,0,7.5,5.1,10.1,31.8,16,47.8,58.9,27.2,92.2-1,1.7-2.9,2.6-4.8,2.6-11.4,0-11.2.3-18.9-8.2-1.9-2-2.1-5.1-.4-7.3,14.6-18.7,6.1-43.1-14.9-56.6-21.3-13.7-26.4-23.3-19.4-35.5,0,0,0,0,0,0,.1-.2.3-.5.4-.8l1.2-2.1h0s0-.1,0-.1l1.8-3.1s0,0,0,0l5.7-10h0s.6-1.1.6-1.1l1.2-2.1c1.9-2.6,3.8-4.6,5.8-5.8,6.9-4.1,16.6-2.2,27,1.6,48.4,18.7,74.5,70.6,61.8,122.1Z"/>
  </g>
</svg>