<?xml version="1.0" encoding="UTF-8"?>
<svg id="_图层_1" xmlns="http://www.w3.org/2000/svg" xmlns:xlink="http://www.w3.org/1999/xlink" version="1.1" viewBox="0 0 1200 400">
  <!-- Generator: Adobe Illustrator 29.0.0, SVG Export Plug-In . SVG Version: 2.1.0 Build 186)  -->
  <defs>
    <style>
      .st0 {
        fill: url(#_未命名的渐变_2);
      }

      .st1 {
        fill: url(#_未命名的渐变);
      }

      .st2 {
        fill: #fc0e1a;
      }

      .st3 {
        fill: #fc0e1b;
      }

      .st4 {
        fill: #fff;
      }
    </style>
    <linearGradient id="_未命名的渐变" data-name="未命名的渐变" x1="7248.9" y1="-12534" x2="7283.3" y2="-12594.3" gradientTransform="translate(7568.2 12709.1) rotate(-180) scale(1 -1)" gradientUnits="userSpaceOnUse">
      <stop offset="0" stop-color="#b40000"/>
      <stop offset=".2" stop-color="#b40000"/>
      <stop offset="1" stop-color="#fc0e1a"/>
    </linearGradient>
    <linearGradient id="_未命名的渐变_2" data-name="未命名的渐变 2" x1="46.1" y1="175.2" x2="80.5" y2="114.9" gradientTransform="translate(0 400) scale(1 -1)" gradientUnits="userSpaceOnUse">
      <stop offset="0" stop-color="#b40000"/>
      <stop offset=".2" stop-color="#b40000"/>
      <stop offset="1" stop-color="#fc0e1a"/>
    </linearGradient>
  </defs>
  <g>
    <path class="st4" d="M477.6,252.6c-6.1-6.7-15.7-10.1-28.4-10.1h-35v86.4h35c12.9,0,22.5-3.4,28.5-10.2,6-6.8,9.1-17.7,9.1-32.4s-3.1-27-9.2-33.7h0ZM469.9,306.2c-1.9,4.7-4.9,7.9-8.7,9.6-3.8,1.7-8.6,2.5-14.4,2.5h-18.6v-65h18.6c6.2,0,11.2,1,15,2.9s6.6,5.3,8.4,10.1c1.7,4.7,2.6,11.5,2.6,20s-1,15.3-2.9,19.9Z"/>
    <path class="st4" d="M559,291.2c0-7.9-2.5-14.4-7.3-19.4s-12.1-7.5-21.7-7.5-18.4,3-23.5,8.8c-5.1,5.9-7.8,14-7.8,24.1s3.1,19.6,9.1,25c6,5.4,14.7,8.2,25.7,8.2s8.2-.3,11.9-.9c3.6-.6,6.8-1.5,9.6-2.7v-10c-2.4.9-5.3,1.7-8.5,2.3-3.4.6-6.8.9-10.1.9-7.8,0-13.7-1.2-17.5-3.6-3.9-2.4-6.2-6.8-6.9-13.1v-.4h47v-11.7ZM546.7,293.9h-34.7v-.4c0-6.5,1.3-11.3,3.9-14.3,2.6-3,7.5-4.6,14.4-4.6s10.1,1.3,12.6,3.8,3.8,6.1,3.8,10.6v4.9Z"/>
    <path class="st4" d="M614.4,265.6l-18.3,50.5-18.3-50.5h-14.5l25,63.4h15.5l24.9-63.4h-14.3Z"/>
    <path class="st4" d="M696.4,317.6c-4.2.7-8.4,1-12.6,1-10.3,0-18-2.7-22.9-8s-7.4-13.2-7.4-23.5,2.3-19.5,6.8-25.3c4.5-5.9,12.3-8.8,23.2-8.8s8.9.4,13,1.1c3.9.7,7.6,1.8,11.1,3.1v-12c-3.5-1.2-7.4-2.2-11.4-2.9-4.2-.8-8.8-1.2-13.8-1.2-9.8,0-18,1.9-24.3,5.6-6.3,3.7-11.1,9-14.1,15.8-3.1,6.8-4.6,15.1-4.6,24.6s3.7,23.8,10.9,31.5,18.1,11.6,32.3,11.6,9.6-.3,13.8-.9c4-.6,7.9-1.5,11.4-2.6v-12.2c-3.6,1.3-7.4,2.4-11.4,3h0Z"/>
    <path class="st4" d="M777.4,272.8c-5.3-5.7-13.8-8.5-25.2-8.5s-19.7,2.9-25,8.5c-5.3,5.7-8,13.9-8,24.5s2.7,18.8,8,24.5,13.7,8.5,25.1,8.5,20-2.9,25.2-8.5c5.3-5.7,8-13.9,8-24.5s-2.7-18.8-8-24.5h0ZM766.9,313.6c-2.9,3.4-7.9,5.1-14.7,5.1s-11.7-1.7-14.6-5.1c-2.9-3.4-4.4-8.8-4.4-16.3s1.5-12.9,4.4-16.2c2.9-3.3,7.8-5,14.6-5s11.8,1.7,14.7,5,4.3,8.8,4.3,16.2-1.5,12.9-4.3,16.3Z"/>
    <path class="st4" d="M855.2,269.9c-3.7-3.8-9.7-5.7-17.9-5.7s-9.2.8-13.2,2.4-7.4,3.5-10.3,5.7l-.5.4-.7-7.1h-12.8v63.4h14v-46.8h0c2.2-2.3,4.9-4.1,8.2-5.5,3.2-1.4,6.6-2.1,10-2.1,5.7,0,9.6,1,11.7,3.1,2.1,2.1,3.2,5.7,3.2,10.7v40.5h13.9v-41.2c0-8.1-1.9-14.1-5.6-17.9h-.1Z"/>
  </g>
  <g>
    <path class="st3" d="M923.2,314.2l.3-.6c2.3-4,5.3-7.7,8.9-11.1,3.6-3.4,7.6-6.9,11.7-10.5,3.3-2.9,6.3-5.9,8.8-8.7,2.5-2.8,4.5-5.8,5.9-9s2.1-6.8,2.1-10.9c0-8.1-2.5-14.7-7.3-19.3-4.9-4.7-12.2-7.1-21.8-7.1s-8,.3-12.3,1c-4.2.6-7.8,1.5-10.9,2.5v12.2c3.1-1.2,6.4-2.1,9.8-2.8,3.6-.7,7.1-1.1,10.6-1.1,6.4,0,11,1.3,13.8,3.8s4.2,6.2,4.2,11-.3,5-.8,6.9c-.5,2-1.5,3.9-2.9,5.7-1.4,1.8-3.3,3.9-5.7,6.1s-5.4,4.9-9,8.1c-4.8,4.1-9.3,8.4-13.5,12.8-4.1,4.4-7.4,9.3-9.7,14.7v6.9h56.5v-10.6h-38.7,0Z"/>
    <path class="st3" d="M1042.9,257.9c-2.4-6.7-6.5-12-11.9-15.5-5.5-3.5-12.9-5.4-22.2-5.4s-16.8,1.8-22.3,5.4c-5.5,3.5-9.5,8.8-12,15.5-2.4,6.8-3.7,15.1-3.7,24.8s1.3,17.4,3.8,24,6.6,11.7,12.1,15.2,12.9,5.3,22,5.3,16.5-1.8,22-5.3,9.5-8.6,12-15.2,3.8-14.7,3.8-24-1.2-18-3.7-24.8h0ZM1027.3,306.7c-3.5,5.8-9.7,8.8-18.5,8.8s-15.1-3-18.6-8.8-5.2-13.8-5.2-24,1.7-19.1,5.1-25c3.4-5.9,9.7-8.9,18.7-8.9s15.2,3,18.6,8.9c3.4,5.8,5.1,14.2,5.1,25s-1.8,18.2-5.2,24Z"/>
    <path class="st3" d="M1073.4,314.2l.3-.6c2.3-4,5.3-7.7,8.9-11.1,3.7-3.4,7.6-6.9,11.7-10.5,3.3-2.9,6.3-5.9,8.8-8.7,2.5-2.8,4.5-5.8,5.9-9s2.1-6.8,2.1-10.9c0-8.1-2.5-14.7-7.3-19.3-4.9-4.7-12.2-7.1-21.8-7.1s-8,.3-12.2,1c-4.2.6-7.9,1.5-10.9,2.5v12.2c3.1-1.2,6.4-2.1,9.8-2.8,3.6-.7,7.1-1.1,10.6-1.1,6.4,0,11,1.3,13.8,3.8s4.2,6.2,4.2,11-.3,5-.8,6.9c-.6,2-1.5,3.9-2.9,5.7-1.4,1.8-3.3,3.9-5.7,6.1-2.4,2.2-5.4,4.9-9,8.1-4.7,4.1-9.3,8.4-13.4,12.8s-7.4,9.3-9.7,14.7v6.9h56.5v-10.6h-38.9Z"/>
    <path class="st3" d="M1171.2,279.2c-4.7-4.3-12.2-6.5-22.5-6.5h-15.2l1.5-23.6h35.9l1.1-10.6h-48.8l-2.3,36.3v8.5h25.3c6.9,0,11.7,1.3,14.1,3.8s3.6,6.4,3.6,11.5-1.7,9.7-5.1,12.1-8.6,3.7-15.6,3.7-7.5-.4-11.6-1.1c-3.8-.7-7.3-1.7-10.4-2.9v12c3,1.3,6.7,2.2,11.2,2.8,4.6.6,8.8,1,12.7,1,10.9,0,19.1-2.5,24.6-7.4s8.3-11.6,8.3-20-2.4-15.3-7.1-19.6h.3Z"/>
  </g>
  <path class="st2" d="M155.6,316.8h-35.4c-3,0-5.9-1.6-7.4-4.3l-32-55.4-30.5-52.8c-.6-1-.9-2.1-1.1-3.2-.2-1.8,0-3.7,1.1-5.3l62.5-108.2c1.5-2.6,4.3-4.3,7.4-4.3h22.1c1.2,0,2.3-.6,2.9-1.7l12.5-21.6c1.3-2.3-.3-5.1-3-5.1h-34.6c-13.2,0-25.4,7.1-32,18.5l-62.5,108.2c-6.6,11.4-6.6,25.5,0,36.9l5.3,9.2,39,67.5,18.2,31.5c6.6,11.4,18.8,18.5,32,18.5h22.9c1.2,0,2.3-.7,2.9-1.7l12.5-21.6c1.3-2.3-.3-5.1-3-5.1h.2Z"/>
  <g>
    <path class="st2" d="M209.8,83.2h35.4c3,0,5.9,1.6,7.4,4.3l32,55.4,30.5,52.8c.6,1,.9,2.1,1.1,3.2.2,1.8-.1,3.7-1.1,5.3l-62.5,108.2c-1.5,2.6-4.3,4.3-7.4,4.3h-22.1c-1.2,0-2.3.6-2.9,1.7l-12.5,21.6c-1.3,2.3.3,5.1,3,5.1h34.6c13.2,0,25.4-7.1,32-18.5l62.5-108.2c6.6-11.4,6.6-25.5,0-36.9l-5.3-9.2-39-67.5-18.2-31.5c-6.6-11.4-18.8-18.5-32-18.5h-22.9c-1.2,0-2.3.7-2.9,1.7l-12.5,21.6c-1.3,2.3.3,5.1,3,5.1h-.2Z"/>
    <path class="st1" d="M270.5,118.6l24.9-13.8,39,67.5-18.2,26.7h0c-.1-1.2-.5-2.3-1.1-3.3l-30.5-52.8-14.1-24.4h0Z"/>
  </g>
  <path class="st0" d="M94.9,281.4l-24.9,13.8-39-67.5,18.2-26.7h0c0,1.2.5,2.3,1.1,3.3l30.5,52.8,14.1,24.4h0Z"/>
  <g>
    <rect class="st4" x="1069.9" y="69.7" width="19.1" height="126.9"/>
    <path class="st4" d="M760.9,143.6c2.2-1,4.2-2.3,5.8-3.9,4.1-3.9,6.7-9.7,6.7-16.9v-30.2c0-7.2-2.7-13-6.7-16.9-4.1-3.9-9.9-6.1-15.4-6.1l-55,.3v127.1h19.1v-51.1h19.7c5,.3,14.2,2.3,17,15l7.5,36.1h20.8c0-.1-7.9-34.1-7.9-34.1-2.4-10.8-6.2-16.4-11.7-19.2M715.4,87.5h0c0,0,32.8,0,32.8,0,3.9,0,6.1,3.4,6.1,7.2v26.1c0,3.8-2.2,7.2-6.1,7.2h-32.8s0-40.4,0-40.4Z"/>
    <path class="st4" d="M421.5,75.7c-4.1,3.9-6.7,9.7-6.7,16.9v81.2c0,7.2,2.7,13,6.7,16.9,4.1,3.9,9.9,6.1,15.4,6.1h51.5v-17.8h-48.4c-3.9,0-6.1-3.4-6.1-7.2v-32.8h47.7v-17.8h-47.7v-26.4c0-3.8,2.2-7.2,6.1-7.2h48.4v-17.8h-51.5c-5.3,0-11.3,2-15.4,6"/>
    <path class="st4" d="M1130.8,87.5h48.4v-17.8h-51.5c-5.3,0-11.3,2.2-15.4,6.1s-6.7,9.7-6.7,16.9v103.7h19.1v-57.4h47.7v-17.8h-47.7v-26.4c0-3.8,2.2-7.2,6.1-7.2"/>
    <path class="st4" d="M560.6,121.2h-29.6c-3.8,0-6.9-3-6.9-6.9v-19.6c0-3.8,2.2-7.2,6.1-7.2h47.5v-17.8h-50.7c-5.3,0-11.3,2.2-15.4,6.1s-6.7,9.7-6.7,16.9v26.3c0,12.3,10,22.4,22.4,22.4h29.6c3.8,0,6.9,3,6.9,6.9v23.5c0,3.8-2.2,7.2-6.1,7.2h-52.6v17.8h55.8c5.3,0,11.3-2.2,15.4-6.1,4.1-3.9,6.7-9.7,6.7-16.9v-30.2c0-12.3-10-22.4-22.4-22.4"/>
    <path class="st4" d="M797.6,75.7c-4.1,3.9-6.7,9.7-6.7,16.9v81.2c0,7.2,2.7,13,6.7,16.9,4.1,3.9,9.9,6.1,15.4,6.1h51.5v-17.8h-48.4c-3.9,0-6.1-3.4-6.1-7.2v-32.8h47.7v-17.8h-47.7v-26.4c0-3.8,2.2-7.2,6.1-7.2h48.4v-17.8h-51.5c-5.3,0-11.3,2-15.4,6"/>
    <path class="st4" d="M936.7,121.2h-29.6c-3.8,0-6.9-3-6.9-6.9v-19.6c0-3.8,2.2-7.2,6.1-7.2h47.5v-17.8h-50.7c-5.3,0-11.3,2.2-15.4,6.1-4.1,3.9-6.7,9.7-6.7,16.9v26.3c0,12.3,10,22.4,22.4,22.4h29.6c3.8,0,6.9,3,6.9,6.9v23.5c0,3.8-2.2,7.2-6.1,7.2h-52.6v17.8h55.8c5.3,0,11.3-2.2,15.4-6.1,4.1-3.9,6.7-9.7,6.7-16.9v-30.2c0-12.3-10-22.4-22.4-22.4"/>
    <path class="st4" d="M1030.4,121.2h-29.6c-3.8,0-6.9-3-6.9-6.9v-19.6c0-3.8,2.2-7.2,6.1-7.2h47.5v-17.8h-50.7c-5.3,0-11.3,2.2-15.4,6.1-4.1,3.9-6.7,9.7-6.7,16.9v26.3c0,12.3,10,22.4,22.4,22.4h29.6c3.8,0,6.9,3,6.9,6.9v23.5c0,3.8-2.2,7.2-6.1,7.2h-52.6v17.8h55.8c5.3,0,11.3-2.2,15.4-6.1,4.1-3.9,6.7-9.7,6.7-16.9v-30.2c0-12.3-10-22.4-22.4-22.4"/>
    <path class="st4" d="M657.9,69.6h-57.8v127.2h19.1v-49.4h38.6c5.3,0,11.3-2.2,15.4-6.1,4.1-3.9,6.7-9.7,6.7-16.9v-31.9c0-7.2-2.7-13-6.7-16.9-3.9-3.9-9.9-6-15.2-6M661,122.3c0,3.8-2.2,7.2-6.1,7.2h-35.6v-42.1h0c0,0,35.6,0,35.6,0,3.9,0,6.1,3.4,6.1,7.2v27.7h0Z"/>
  </g>
  <path class="st3" d="M275.2,199.9c0-1.8-.3-3.6-.9-5.3-.4-1.1-.8-2.2-1.4-3.2l-.7-1.2-35.9-62.1-1.1-2c-3.1-5.3-8.6-8.6-14.8-8.6h-18.6c-2.3,0-3.3,3-1.4,4.4,6.5,4.7,16.4,13.6,30,34.2,4,6.1,7.7,13.1,11.8,20.5,11.8,21.4,16,40.2,16.7,48.4.2,2.1,2.9,2.7,3.9.9l9.8-17c1.6-2.8,2.6-5.8,2.5-9h.1Z"/>
  <path class="st3" d="M250.4,243.8c-1.7-24.5-10.2-50.3-23.1-70.6-11.5-21.1-30-40.3-50.7-53.6-1.8-1.2-3.8-2.1-6.8-2.1h-24.2c-1.7,0-3.5.4-4.9,1.3h0c-1.1.8-2.1,1.8-2.8,3l-2.3,3.9c-.2.9-.2,1.8,0,2.6h0c.4,1.6,1.6,2.9,3.2,3.4,27.3,8.9,52.9,32.3,66.8,55.5h0c.7,1.1,1.4,2.2,2.1,3.4,13.5,23.4,19,51.4,13.6,79.7-.3,1.7.2,3.3,1.3,4.4s2.1,1.3,3.3,1.3h3.6c3.2,0,5.5-1.8,7.1-4.5l12.3-21.2v-.2c.7-2.3,1.6-3.7,1.5-6.2h0Z"/>
  <path class="st3" d="M113.9,227h0c-5,0-9.6,2.7-12.1,7h0c-2.5,4.3-2.5,9.6,0,13.9h0c2.5,4.3,7.1,7,12.1,7h0c5,0,9.6-2.7,12.1-7h0c2.5-4.3,2.5-9.6,0-13.9h0c-2.5-4.3-7.1-7-12.1-7Z"/>
  <path class="st3" d="M207.9,273.3c-1,2.8-1.5,9.1-5.9,9.1h-20.5c-4.2-1.7-3.8-5.5-2.6-9,1.1-3.1,2-6.3,2.6-9.5,8.3-39.8-8.3-71.2-42.1-87.5-3.6-1.7-7.7-5.3-11.3,1.2-3.4,6.1,0,7.5,5.1,10.1,31.8,16,47.8,58.9,27.2,92.2-1,1.7-2.9,2.6-4.8,2.6-11.4,0-11.2.3-18.9-8.2-1.9-2-2.1-5.1-.4-7.3,14.6-18.7,6.1-43.1-14.9-56.6-21.3-13.7-26.4-23.3-19.4-35.5h0c0-.2.3-.5.4-.8l1.2-2.1h0c0-.1,1.8-3.2,1.8-3.2h0l5.7-10h0l.6-1.1,1.2-2.1c1.9-2.6,3.8-4.6,5.8-5.8,6.9-4.1,16.6-2.2,27,1.6,48.4,18.7,74.5,70.6,61.8,122.1l.4-.2Z"/>
</svg>